<svg class="pattern-mobile" xmlns="http://www.w3.org/2000/svg" fill="#fff" viewBox="0 0 1300 1024">
  <g>
    <path d="M879.4,393.4c0.1,0,0.2,0,0.2,0C879.5,393.4,879.5,393.4,879.4,393.4L879.4,393.4z"/>
    <path d="M879,393.4c-0.3,0-0.6,0-0.9,0.1c0.5,0,1.1-0.1,1.3-0.1C879.2,393.4,879.2,393.4,879,393.4z"/>
    <path d="M0,0v1024h1300V0H0z M209.3,524.8c31.2,0,54.8-0.8,89.2-45.6c18.9-24.6,36.2-50.4,36.2-50.4l132.8-182.5
      c0,0,17.3-25.7,36.2-50.2c34.4-44.7,57.9-45.5,89.1-45.5c23.5,0,94.6,0,114.7,0c-31.1,0-54.7,0.8-89.1,45.5
      c-18.9,24.5-36.2,50.2-36.2,50.2L449.3,428.9c0,0-17.3,25.8-36.2,50.4c-34.4,44.9-58,45.6-89.2,45.6
      C300.4,524.8,229.4,524.8,209.3,524.8z M358.9,524.8c31.2,0,54.8-0.8,89.2-45.6c18.9-24.6,36.2-50.4,36.2-50.4l132.8-182.5
      c0,0,17.3-25.7,36.2-50.2c34.4-44.6,57.9-45.4,89.1-45.4c23.5,0,94.6,0,114.7,0c-31.1,0-54.7,0.8-89.1,45.5
      c-18.9,24.5-36.2,50.2-36.2,50.2L599,428.9c0,0-17.3,25.8-36.2,50.4c-34.4,44.9-58,45.6-89.2,45.6
      C450,524.8,378.9,524.8,358.9,524.8z M878.6,417.4c-106.4,0-118.7,0-118.7,0c14.1-19.7,13.6-19.1,29.7-41
      c34.5-46.9,58.1-49.6,88.5-51.6c-1.4,0.1-2.9,0.1,0.9-0.1c0.2,0,0.3,0,0.4,0c-30.9,0-54.5,1-88.8,45.5
      c-18.9,24.5-36.2,50.2-36.2,50.2l-6,8.4c0,0-17.3,25.8-36.2,50.4c-34.4,44.9-58,45.6-89.2,45.6c-23.6,0-94.6,0-114.7,0
      c31.2,0,54.8-0.8,89.2-45.6c18.9-24.6,36.2-50.4,36.2-50.4l6-8.4c0,0,17.3-25.7,36.2-50.2c34.4-44.7,57.9-45.5,89.1-45.5
      c23.4,0,93.8,0,114.3,0c0.1,0,0.1,0,0.2,0s0.2,0,0.3,0c22.3-1,39.4-17.2,39.4-39.4c0-22.3-18.1-40.3-40.4-40.3S745.7,245,735.6,245
      c14.6-20.3,13.8-19,29.7-41.1c36.8-50.8,64-53.3,92.2-53.3c4.4,0,19,0,22,0c73.2,0,131.6,61,131.6,134.2S951.8,417.4,878.6,417.4z"
      />
    <path class="st0" d="M879.4,393.4L879.4,393.4L879.4,393.4z"/>
    <path class="st0" d="M879.8,393.4c-0.1,0-0.1,0-0.2,0l0,0C879.7,393.4,879.7,393.4,879.8,393.4z"/>
  </g>
</svg>
