<svg class="pattern" xmlns="http://www.w3.org/2000/svg" viewBox="0 0 1920 1080" preserveAspectRatio="none">
  <style type="text/css">
    .st0{fill:#FFFFFF;}
  </style>
  <g>
    <path class="st0" d="M915.4,376c0.1,0,0.2,0,0.2,0C915.5,376,915.5,376,915.4,376C915.4,376,915.4,376,915.4,376z"/>
    <path class="st0" d="M914.9,376c-0.3,0-0.7,0-1,0.1c0.6,0,1.3-0.1,1.5-0.1C915.2,376,915.1,376,914.9,376z"/>
    <path class="st0" d="M0.5,1v1080h1920V1H0.5z M141.6,607c36,0,63.3-0.9,103-52.7c21.8-28.4,41.8-58.2,41.8-58.2l153.3-210.7
      c0,0,20-29.7,41.8-58c39.7-51.6,66.9-52.5,102.9-52.5c27.1,0,109.2,0,132.4,0c-35.9,0-63.2,0.9-102.9,52.5
      c-21.8,28.3-41.8,58-41.8,58L418.8,496.2c0,0-20,29.8-41.8,58.2c-39.7,51.8-67,52.7-103,52.7C246.8,607,164.8,607,141.6,607z
      M314.4,607c36,0,63.3-0.9,103-52.7c21.8-28.4,41.8-58.2,41.8-58.2l153.3-210.7c0,0,20-29.7,41.8-58C694,175.9,721.2,175,757.2,175
      c27.1,0,109.2,0,132.4,0c-35.9,0-63.2,0.9-102.9,52.5c-21.8,28.3-41.8,58-41.8,58L591.6,496.2c0,0-20,29.8-41.8,58.2
      c-39.7,51.8-67,52.7-103,52.7C419.6,607,337.5,607,314.4,607z M914.5,483c-122.8,0-137.1,0-137.1,0c16.3-22.7,15.7-22.1,34.3-47.3
      c39.8-54.2,67.1-57.3,102.2-59.6c-1.6,0.1-3.3,0.1,1-0.1c0.2,0,0.3,0,0.5,0c-35.7,0-62.9,1.1-102.5,52.5
      c-21.8,28.3-41.8,58-41.8,58l-6.9,9.7c0,0-20,29.8-41.8,58.2c-39.7,51.8-67,52.7-103,52.7c-27.2,0-109.2,0-132.4,0
      c36,0,63.3-0.9,103-52.7c21.8-28.4,41.8-58.2,41.8-58.2l6.9-9.7c0,0,20-29.7,41.8-58c39.7-51.6,66.9-52.5,102.9-52.5
      c27,0,108.3,0,132,0c0.1,0,0.1,0,0.2,0c0.1,0,0.2,0,0.3,0c25.7-1.2,45.5-19.9,45.5-45.5c0-25.7-20.9-46.5-46.6-46.5
      s-153.8-0.1-165.5-0.1c16.9-23.4,15.9-21.9,34.3-47.4c42.5-58.7,73.9-61.6,106.5-61.6c5.1,0,21.9,0,25.4,0c84.5,0,152,70.4,152,155
      C1067.5,414.5,999,483,914.5,483z"/>
    <polygon class="st0" points="915.4,376 915.4,376 915.4,376 	"/>
    <path class="st0" d="M915.8,376c-0.1,0-0.1,0-0.2,0c0,0,0,0,0,0C915.7,376,915.7,376,915.8,376z"/>
  </g>
</svg>
